<svg width="24" height="24" viewBox="0 0 24 24" fill="none" xmlns="http://www.w3.org/2000/svg">
<path d="M9.57 5.17988C9.76 5.17988 9.95 5.24988 10.1 5.39988C10.39 5.68988 10.39 6.16988 10.1 6.45988L4.56 11.9999L10.1 17.5399C10.39 17.8299 10.39 18.3099 10.1 18.5999C9.81 18.8899 9.33 18.8899 9.04 18.5999L2.97 12.5299C2.68 12.2399 2.68 11.7599 2.97 11.4699L9.04 5.39988C9.19 5.24988 9.38 5.17988 9.57 5.17988Z" fill="white"/>
<path d="M3.67 11.25L20.5 11.25C20.91 11.25 21.25 11.59 21.25 12C21.25 12.41 20.91 12.75 20.5 12.75L3.67 12.75C3.26 12.75 2.92 12.41 2.92 12C2.92 11.59 3.26 11.25 3.67 11.25Z" fill="white"/>
</svg>