<svg width="218" height="108" viewBox="0 0 218 108" fill="none" xmlns="http://www.w3.org/2000/svg">
<path d="M13.2198 46L0.128174 0.856445H3.73966L15.4125 41.4212L27.9882 0.856445H32.0511L44.6913 41.4212L56.2997 0.856445H59.9111L46.8195 46H42.6921L30.0519 5.30631L17.3472 46H13.2198Z" fill="white"/>
<path d="M77.8374 13.0452C85.5118 13.0452 90.3486 18.14 90.3486 25.9434V46H87.0596V25.9434C87.0596 20.0102 83.6416 16.1408 77.5794 16.1408C71.2593 16.1408 66.2935 20.2682 66.2935 28.9744V46H63.069V0.856445H66.2935V19.8812C68.7442 15.1089 72.8716 13.0452 77.8374 13.0452Z" fill="white"/>
<path d="M98.3962 5.95122C96.9774 5.95122 95.8166 4.79038 95.8166 3.37159C95.8166 2.01728 96.9774 0.856445 98.3962 0.856445C99.815 0.856445 100.976 2.01728 100.976 3.37159C100.976 4.79038 99.815 5.95122 98.3962 5.95122ZM96.7839 46V13.7546H100.008V46H96.7839Z" fill="white"/>
<path d="M123.769 16.9147H114.16V37.8742C114.16 43.5494 117.191 43.6783 123.769 43.0979V46C115.321 47.2898 110.871 45.2261 110.871 37.8742V16.9147H103.777V13.7546H110.871V5.69326L114.16 4.72589V13.7546H123.769V16.9147Z" fill="white"/>
<path d="M141.377 13.0452C151.18 13.0452 157.307 21.171 157.307 30.0063C157.307 30.5222 157.242 31.0381 157.242 31.5541H128.028C128.802 38.8415 134.348 43.6138 141.7 43.6138C146.988 43.6138 150.987 41.1632 152.857 37.7452L155.694 39.4219C153.05 43.8073 148.02 46.7094 141.635 46.7094C131.704 46.7094 124.674 39.6154 124.674 29.8773C124.674 20.3972 131.51 13.0452 141.377 13.0452ZM141.377 16.1408C134.026 16.1408 128.673 21.2355 128.028 28.394H153.953C153.244 20.5261 147.698 16.1408 141.377 16.1408Z" fill="white"/>
<path d="M107.172 61C119.038 61 127.229 71.512 124.972 84.2167C122.714 96.9214 112.202 106.144 99.2398 106.144H81.3114L89.2437 61H107.172ZM116.459 83.3138C117.878 74.9945 113.492 69.5128 105.689 69.5128H96.6602L91.6944 97.6308H100.207C108.526 97.6308 114.976 91.6331 116.459 83.3138Z" fill="url(#paint0_linear_345_86)"/>
<path d="M144.846 72.9953C154.326 72.9953 160.711 80.4117 158.905 90.0209C158.841 90.7303 158.454 92.278 158.002 93.4389H133.625C134.012 97.8242 137.365 99.501 141.364 99.501C144.588 99.501 147.232 98.4047 149.296 96.212L155.165 100.92C151.553 104.983 146.652 107.046 140.719 107.046C129.82 107.046 124.016 99.1141 125.628 89.376C127.111 80.0248 135.237 72.9953 144.846 72.9953ZM134.786 86.9253H151.166C151.037 82.282 148.006 80.4762 144.33 80.4762C140.009 80.4762 136.591 82.8624 134.786 86.9253Z" fill="url(#paint1_linear_345_86)"/>
<path d="M179.506 72.9953C188.986 72.9953 195.371 80.4117 193.565 90.0209C193.5 90.7303 193.113 92.278 192.662 93.4389H168.284C168.671 97.8242 172.025 99.501 176.023 99.501C179.248 99.501 181.892 98.4047 183.956 96.212L189.824 100.92C186.213 104.983 181.312 107.046 175.378 107.046C164.479 107.046 158.675 99.1141 160.288 89.376C161.771 80.0248 169.897 72.9953 179.506 72.9953ZM169.445 86.9253H185.826C185.697 82.282 182.666 80.4762 178.99 80.4762C174.669 80.4762 171.251 82.8624 169.445 86.9253Z" fill="url(#paint2_linear_345_86)"/>
<path d="M206.749 79.0574C209.2 74.8655 213.327 73.1888 217.583 73.2533L215.971 82.5399C211.973 82.0885 206.104 83.7008 204.75 90.4078L201.977 106.144H193.657L199.333 73.8982H207.652L206.749 79.0574Z" fill="url(#paint3_linear_345_86)"/>
<defs>
<linearGradient id="paint0_linear_345_86" x1="86.5" y1="61" x2="225.5" y2="124.5" gradientUnits="userSpaceOnUse">
<stop stop-color="white"/>
<stop offset="1" stop-color="white" stop-opacity="0"/>
</linearGradient>
<linearGradient id="paint1_linear_345_86" x1="86.5" y1="61" x2="225.5" y2="124.5" gradientUnits="userSpaceOnUse">
<stop stop-color="white"/>
<stop offset="1" stop-color="white" stop-opacity="0"/>
</linearGradient>
<linearGradient id="paint2_linear_345_86" x1="86.5" y1="61" x2="225.5" y2="124.5" gradientUnits="userSpaceOnUse">
<stop stop-color="white"/>
<stop offset="1" stop-color="white" stop-opacity="0"/>
</linearGradient>
<linearGradient id="paint3_linear_345_86" x1="86.5" y1="61" x2="225.5" y2="124.5" gradientUnits="userSpaceOnUse">
<stop stop-color="white"/>
<stop offset="1" stop-color="white" stop-opacity="0"/>
</linearGradient>
</defs>
</svg>
