<svg width="36" height="36" viewBox="0 0 36 36" fill="none" xmlns="http://www.w3.org/2000/svg">
<path fill-rule="evenodd" clip-rule="evenodd" d="M10.2936 10.0111C8.20133 12.0299 6.9 14.863 6.9 18C6.9 24.1303 11.8696 29.1 18 29.1C18.153 29.1 18.3053 29.0969 18.4568 29.0907C18.2103 27.9968 18.1768 26.5261 18.9288 25.1091C19.7113 23.6345 21.3315 22.9946 22.5226 22.7019C23.1468 22.5484 23.725 22.4728 24.1453 22.435C24.3566 22.4161 24.5307 22.4065 24.6542 22.4016C24.716 22.3991 24.7653 22.3979 24.8004 22.3972L24.8423 22.3966L24.8525 22.3966C26.8595 22.3756 27.7637 21.7229 28.2436 21.1003C28.6535 20.5685 28.8083 20.0365 28.9652 19.497C28.9852 19.4283 29.0052 19.3596 29.0258 19.2907C29.0748 18.8672 29.1 18.4365 29.1 18C29.1 14.9711 27.8868 12.2255 25.9199 10.2227C25.9094 10.2636 25.8987 10.3039 25.8878 10.3435C25.6925 11.055 25.377 11.7853 25.0342 12.3057C24.7271 12.7717 24.1314 13.2419 23.637 13.5971C23.3116 13.8309 22.9728 14.0295 22.6655 14.2066C22.6284 14.228 22.5918 14.2491 22.5556 14.2699C22.2819 14.4273 22.0357 14.5689 21.7988 14.7255C21.2806 15.0678 20.8796 15.4363 20.6098 15.9927C20.5153 16.1876 20.5124 16.3777 20.5682 16.5812C20.6577 16.907 20.7187 17.2735 20.7197 17.6472C20.7217 18.426 20.325 19.0581 19.8152 19.4689C19.3114 19.875 18.653 20.1072 17.9902 20.0999C15.0438 20.0678 13.2323 17.6767 12.9934 15.0174C12.8983 13.9595 12.4345 12.8894 11.8489 11.9542C11.3111 11.0953 10.7051 10.4051 10.2936 10.0111ZM11.6941 8.86391C12.1921 9.36552 12.817 10.1085 13.3745 10.9989C14.0435 12.0674 14.6565 13.4131 14.7862 14.8563C14.9673 16.8726 16.2419 18.2807 18.0098 18.3C18.2529 18.3027 18.5055 18.2126 18.6857 18.0674C18.8598 17.9271 18.92 17.779 18.9197 17.6519C18.9192 17.4653 18.8877 17.259 18.8325 17.0578C18.6871 16.5283 18.6663 15.8751 18.9902 15.2072C19.4522 14.2547 20.1369 13.666 20.8065 13.2236C21.0935 13.034 21.3911 12.863 21.6597 12.7086C21.6959 12.6878 21.7316 12.6673 21.7667 12.6471C22.073 12.4706 22.3418 12.3112 22.5867 12.1353C23.104 11.7636 23.4312 11.4669 23.5311 11.3153C23.75 10.983 23.9963 10.4344 24.1521 9.86698C24.2755 9.41741 24.3098 9.07241 24.2982 8.85856C22.5088 7.62334 20.3389 6.89998 18 6.89998C15.6578 6.89998 13.485 7.62543 11.6941 8.86391ZM30.8151 19.4883C30.8712 19 30.9 18.5033 30.9 18C30.9 10.8755 25.1245 5.09998 18 5.09998C10.8755 5.09998 5.1 10.8755 5.1 18C5.1 25.1244 10.8755 30.9 18 30.9C24.5524 30.9 29.9639 26.0147 30.7906 19.6877C30.8125 19.6114 30.8315 19.548 30.8485 19.5001L30.8151 19.4883ZM27.4856 23.7679C26.7709 24.0299 25.9094 24.1856 24.8713 24.1965L24.8619 24.1966V24.1965L24.8587 24.1966L24.834 24.1969C24.8106 24.1974 24.7739 24.1983 24.7253 24.2002C24.628 24.204 24.484 24.2119 24.3062 24.2278C23.9485 24.2599 23.4645 24.3239 22.9523 24.4498C21.8708 24.7157 20.922 25.193 20.5188 25.9529C19.9723 26.9828 20.0502 28.1035 20.2541 28.871C23.3128 28.24 25.9118 26.3506 27.4856 23.7679Z" fill="white"/>
</svg>
