<svg width="38" height="48" viewBox="0 0 38 48" fill="none" xmlns="http://www.w3.org/2000/svg">
<path fill-rule="evenodd" clip-rule="evenodd" d="M11.7811 0.329506C10.9257 1.24005 10.3734 2.35731 9.76576 4.40647C9.31061 5.94102 8.58598 7.41599 8.08155 7.83424C7.87693 8.00396 7.62776 8.02476 7.4997 7.88287C7.34146 7.70753 7.00171 7.05058 6.81991 6.56846C6.58598 5.94805 6.54365 5.20267 6.68632 4.21685C6.78551 3.5314 6.78688 2.28996 6.68871 2.06442C6.56464 1.77945 6.38935 2.04384 6.03967 3.0431C5.69558 4.02667 5.60882 4.51002 5.60739 5.45149C5.60608 6.35894 5.69621 6.92229 5.98474 7.81001C6.18239 8.41811 7.09469 10.2142 7.9706 11.7197C9.42589 14.2211 10.3908 16.7631 10.2922 17.8355C10.2582 18.2055 10.1419 18.4075 9.87506 18.5604C9.64808 18.6905 7.9856 18.7893 7.19651 18.7197L6.62254 18.669L6.08416 18.3077C5.46444 17.892 5.11471 17.7068 4.94905 17.7068C4.78699 17.7068 4.80045 17.7588 5.06245 18.1455C5.35047 18.5706 5.87384 19.0522 6.23732 19.2267C6.49265 19.3493 6.61364 19.3634 7.71339 19.3995C8.98335 19.4411 9.56924 19.5236 10.3374 19.769C11.0507 19.9969 11.172 20.0779 12.0277 20.8982C13.5969 22.4025 14.087 23.3221 13.5911 23.8321C13.5049 23.9209 13.2073 24.0761 12.8878 24.1991C11.7628 24.6321 10.9782 25.0862 10.1092 25.8071C9.46594 26.3407 8.43761 26.7259 7.27814 26.8675C6.43316 26.9707 6.38826 26.9804 6.25199 27.0891L6.12301 27.192L6.2622 27.2697C6.48159 27.3921 7.64111 27.3594 8.36939 27.2103C9.46697 26.9857 10.5212 26.5553 11.167 26.0683C12.1654 25.3155 13.3464 24.7829 14.0473 24.7696C14.4113 24.7627 14.4797 24.7803 14.7829 24.9588C15.5438 25.4068 16.0114 25.9957 16.0127 26.5079C16.0136 26.8724 15.4066 28.3163 15.0628 28.7675C14.7456 29.1837 14.6122 28.9492 14.4987 27.7757C14.4501 27.2737 14.3829 26.795 14.3492 26.7119L14.2879 26.5609L14.2161 26.7296C14.1766 26.8224 14.1027 27.1811 14.052 27.5269C13.8353 29.0028 14.0082 29.5142 14.7819 29.6848C15.1622 29.7687 15.4268 29.693 15.7023 29.4215C15.9698 29.1578 16.057 28.9824 16.3545 28.1096L16.6122 27.3533L16.9545 27.2216C17.1427 27.1492 17.366 27.0162 17.4508 26.926C17.871 26.479 17.7665 25.6376 17.2493 25.3024C16.3625 24.7278 14.9614 22.9959 14.0153 21.3047C13.6471 20.6464 12.9753 19.6672 12.3608 18.8933L11.897 18.309L11.2407 16.3635C10.4279 13.9538 9.77477 12.2161 9.33679 11.298C9.07011 10.739 8.99065 10.507 8.94815 10.163C8.84034 9.29133 9.08705 8.2476 9.6717 7.10207C9.82731 6.79721 10.3586 5.88998 10.8524 5.08608C11.7783 3.57862 12.3125 2.59685 12.5615 1.94484C12.8275 1.24848 12.7223 1.25118 12.1492 1.95552C11.9306 2.22413 11.5397 2.74144 11.2805 3.10505C11.0213 3.46872 10.7896 3.77825 10.7655 3.79292C10.6964 3.83497 10.8633 3.05412 11.0295 2.55772C11.223 1.97975 11.541 1.28002 11.9083 0.623914C12.3049 -0.0847007 12.2625 -0.182968 11.7811 0.329506ZM26.2264 0.0161524C26.2251 0.0723131 26.3531 0.348732 26.5108 0.630379C26.8746 1.28042 27.1929 1.9815 27.3859 2.55772C27.552 3.05412 27.7189 3.83497 27.6499 3.79292C27.6258 3.77825 27.3938 3.46872 27.1344 3.10505C26.5312 2.25977 25.9055 1.48105 25.7959 1.43968C25.6754 1.39403 25.6881 1.51079 25.85 1.93467C26.0974 2.5824 26.6461 3.59161 27.5635 5.08608C28.057 5.88998 28.5881 6.79721 28.7437 7.10207C29.3295 8.24997 29.5845 9.33203 29.4688 10.1795C29.4259 10.4941 29.3307 10.7665 29.0777 11.298C28.6395 12.2191 27.9852 13.9606 27.1746 16.3635L26.5184 18.309L26.0545 18.8933C25.4401 19.6672 24.7683 20.6464 24.4 21.3047C23.454 22.9959 22.0529 24.7278 21.1661 25.3024C20.6488 25.6376 20.5444 26.479 20.9646 26.926C21.0493 27.0162 21.2727 27.1492 21.4609 27.2216L21.8032 27.3533L22.0609 28.1096C22.3583 28.9824 22.4455 29.1578 22.7131 29.4215C22.9885 29.693 23.2532 29.7687 23.6335 29.6848C24.4054 29.5146 24.5758 29.0157 24.3667 27.5379C24.3177 27.1919 24.2438 26.8306 24.2025 26.7349L24.1275 26.5609L24.0662 26.7119C24.0325 26.795 23.9652 27.2737 23.9166 27.7757C23.8032 28.9492 23.6698 29.1837 23.3525 28.7675C23.0079 28.3151 22.4021 26.8731 22.4021 26.5049C22.4021 26.0046 22.8835 25.3997 23.6325 24.9588C23.9356 24.7803 24.0041 24.7627 24.3681 24.7696C25.069 24.7829 26.25 25.3155 27.2484 26.0683C27.8942 26.5553 28.9484 26.9857 30.046 27.2103C30.7743 27.3594 31.9338 27.3921 32.1532 27.2697L32.2924 27.192L32.1634 27.0891C32.0271 26.9804 31.9822 26.9707 31.1372 26.8675C29.9778 26.7259 28.9494 26.3407 28.3061 25.8071C27.4371 25.0862 26.6526 24.6321 25.5276 24.1991C25.208 24.0761 24.9105 23.9209 24.8243 23.8321C24.3284 23.3221 24.8184 22.4025 26.3877 20.8982C27.2434 20.0779 27.3646 19.9969 28.078 19.769C28.8461 19.5236 29.432 19.4411 30.702 19.3995C31.8017 19.3634 31.9227 19.3493 32.178 19.2267C32.5415 19.0522 33.0649 18.5706 33.3529 18.1455C33.6149 17.7588 33.6284 17.7068 33.4663 17.7068C33.3007 17.7068 32.9509 17.892 32.3312 18.3077L31.7928 18.669L31.2189 18.7197C30.4298 18.7893 28.7673 18.6905 28.5403 18.5604C28.0297 18.2677 27.9781 17.5884 28.3663 16.2681C28.7017 15.1273 29.5786 13.2086 30.4448 11.7197C31.3207 10.2142 32.233 8.41811 32.4306 7.81001C32.7192 6.92229 32.8093 6.35894 32.808 5.45149C32.8065 4.51002 32.7198 4.02667 32.3757 3.0431C32.026 2.04384 31.8507 1.77945 31.7267 2.06442C31.6285 2.28996 31.6299 3.5314 31.7291 4.21685C31.8717 5.20267 31.8294 5.94805 31.5955 6.56846C31.4137 7.05058 31.0739 7.70753 30.9157 7.88287C30.7876 8.02476 30.5384 8.00396 30.3338 7.83424C29.8294 7.41599 29.1048 5.94102 28.6496 4.40647C28.2063 2.91172 27.7396 1.81026 27.2273 1.04959C26.926 0.602214 26.2296 -0.116857 26.2264 0.0161524Z" fill="white" fill-opacity="0.971"/>
<path fill-rule="evenodd" clip-rule="evenodd" d="M2.59074e-07 38.3711C8.68186e-05 38.4414 0.253273 39.9204 0.562637 41.6577C0.872 43.395 1.1251 44.8502 1.1251 44.8916C1.1251 44.9353 1.3563 44.9668 1.67674 44.9668H2.22839L2.59852 43.0288C2.80202 41.9629 2.97964 41.1002 2.99314 41.1116C3.00664 41.123 3.17821 41.9375 3.37435 42.9217C3.57049 43.9058 3.75106 44.7686 3.77555 44.8389C3.81147 44.942 3.91915 44.9668 4.33196 44.9668C4.79185 44.9668 4.84837 44.95 4.88853 44.8023C4.92844 44.6555 6.05899 38.3499 6.05899 38.2742C6.05899 38.2571 5.78633 38.2432 5.45307 38.2432C5.05836 38.2432 4.84716 38.2722 4.84716 38.3263C4.84716 38.4449 4.32849 41.9199 4.29837 42.0028C4.28461 42.0407 4.10439 41.2103 3.89777 40.1575L3.52219 38.2432H3.02197C2.61964 38.2432 2.51326 38.2683 2.47863 38.3711C2.455 38.4414 2.28846 39.3007 2.10859 40.2805C1.92872 41.2604 1.77118 42.0332 1.75854 41.998C1.72972 41.9179 1.21166 38.4399 1.21166 38.3263C1.21166 38.2722 1.00045 38.2432 0.605744 38.2432C0.0863003 38.2432 -0.00017286 38.2615 2.59074e-07 38.3711ZM6.49179 41.605V44.9668H7.0977H7.70362V43.4686V41.9704H8.35282H9.00201V43.4686V44.9668H9.60793H10.2138V41.605V38.2432H9.60793H9.00201V39.6318V41.0204H8.35282H7.70362V39.6318V38.2432H7.0977H6.49179V41.605ZM10.8198 41.605V44.9668H11.4257H12.0316V41.605V38.2432H11.4257H10.8198V41.605ZM12.2222 38.7L12.248 39.1568L12.8755 39.1783L13.5031 39.1997V42.0833V44.9668H14.109H14.7149V42.08V39.1933H15.3641H16.0133V38.7183V38.2432H14.1049H12.1965L12.2222 38.7ZM16.3596 41.605V44.9668H18.0042H19.6488V44.4918V44.0167H18.6101H17.5714V42.9936V41.9704H18.3072H19.0429V41.4954V41.0204H18.3072H17.5714V40.1068V39.1933H18.6101H19.6488V38.7183V38.2432H18.0042H16.3596V41.605ZM21.6397 41.605V44.9776L22.8732 44.9539C24.3488 44.9256 24.646 44.8328 25.0588 44.2716L25.3185 43.9186V41.605V39.2915L25.0588 38.9384C24.646 38.3772 24.3488 38.2845 22.8732 38.2561L21.6397 38.2324V41.605ZM25.8811 41.605V44.9668H27.5257H29.1704V44.4918V44.0167H28.1317H27.0929V42.9936V41.9704H27.8287H28.5645V41.4954V41.0204H27.8287H27.0929V40.1068V39.1933H28.1317H29.1704V38.7183V38.2432H27.5257H25.8811V41.605ZM29.6032 41.605V44.9668H30.2091H30.815V43.5782V42.1897H31.1018H31.3885L31.7649 43.5782L32.1413 44.9668H32.7765C33.126 44.9668 33.4118 44.9492 33.4118 44.9275C33.4118 44.906 33.2169 44.2323 32.9786 43.4305L32.5452 41.9727L32.8384 41.6484C33.2188 41.2277 33.3598 40.7193 33.3042 39.969C33.2348 39.0322 32.8888 38.5522 32.1221 38.3289C31.9566 38.2807 31.3411 38.2432 30.7155 38.2432H29.6032V41.605ZM33.758 41.605V44.9668H34.3639H34.9699V43.5782V42.1897H35.2566H35.5433L35.9198 43.5782L36.2961 44.9668H36.9314C37.2808 44.9668 37.5666 44.9492 37.5666 44.9275C37.5666 44.906 37.3717 44.2323 37.1334 43.4305L36.7001 41.9727L36.9933 41.6484C37.3737 41.2277 37.5147 40.7193 37.459 39.969C37.3896 39.0322 37.0436 38.5522 36.277 38.3289C36.1115 38.2807 35.496 38.2432 34.8704 38.2432H33.758V41.605ZM22.8515 41.605V44.0167H23.1588C23.5921 44.0167 23.9414 43.8423 24.054 43.5695C24.1137 43.4248 24.1499 42.6843 24.1499 41.605C24.1499 40.5257 24.1137 39.7853 24.054 39.6405C23.9414 39.3678 23.5921 39.1933 23.1588 39.1933H22.8515V41.605ZM30.815 40.2257V41.2582L31.2639 41.2218C31.8114 41.1773 31.9863 41.023 32.0698 40.5107C32.2073 39.6665 31.8979 39.1933 31.2084 39.1933H30.815V40.2257ZM34.9699 40.2257V41.2582L35.4188 41.2218C35.9662 41.1773 36.1412 41.023 36.2246 40.5107C36.3622 39.6665 36.0528 39.1933 35.3633 39.1933H34.9699V40.2257ZM3.38006 46.3317C3.38249 46.405 3.45061 46.7774 3.53154 47.1592C3.67012 47.8135 3.6915 47.8548 3.9021 47.8754C4.12006 47.8969 4.12828 47.8817 4.23994 47.2542C4.36632 46.5435 4.37688 46.5457 4.52905 47.3164C4.62695 47.8119 4.6524 47.8552 4.85858 47.8757C5.07914 47.8974 5.08407 47.8871 5.23633 47.088C5.32116 46.6426 5.36738 46.2587 5.33899 46.2347C5.18742 46.1067 5.03395 46.3062 4.97959 46.702C4.89641 47.307 4.79678 47.3952 4.72459 46.9278C4.62522 46.2847 4.58791 46.2092 4.36952 46.2092C4.18913 46.2092 4.16083 46.2593 4.07003 46.739C4.0148 47.0304 3.95897 47.3018 3.9459 47.3419C3.93283 47.3821 3.8673 47.1524 3.80039 46.8313C3.707 46.3838 3.64329 46.2418 3.52713 46.223C3.42654 46.2067 3.37712 46.2432 3.38006 46.3317ZM6.20329 46.2579C6.17152 46.2847 6.14555 46.6629 6.14555 47.0984C6.14555 47.8413 6.1562 47.8901 6.31867 47.8901C6.46868 47.8901 6.49179 47.8413 6.49179 47.5247V47.1592H6.79475H7.0977V47.5247C7.0977 47.8413 7.12082 47.8901 7.27082 47.8901C7.4339 47.8901 7.44394 47.8413 7.44394 47.0496C7.44394 46.2579 7.4339 46.2092 7.27082 46.2092C7.12082 46.2092 7.0977 46.2579 7.0977 46.5746V46.94H6.79475H6.49179V46.5746C6.49179 46.3188 6.45716 46.2092 6.3764 46.2092C6.31287 46.2092 6.23497 46.2311 6.20329 46.2579ZM8.22298 47.0496C8.22298 47.8413 8.23302 47.8901 8.3961 47.8901C8.55917 47.8901 8.56922 47.8413 8.56922 47.0496C8.56922 46.2579 8.55917 46.2092 8.3961 46.2092C8.23302 46.2092 8.22298 46.2579 8.22298 47.0496ZM9.26169 46.3188C9.26169 46.3919 9.34825 46.4284 9.52137 46.4284H9.78105V47.1592C9.78105 47.8413 9.79256 47.8901 9.95417 47.8901C10.1158 47.8901 10.1273 47.8413 10.1273 47.1592V46.4284H10.387C10.5601 46.4284 10.6466 46.3919 10.6466 46.3188C10.6466 46.2305 10.512 46.2092 9.95417 46.2092C9.39638 46.2092 9.26169 46.2305 9.26169 46.3188ZM11.3391 47.0496V47.8901H11.8585C12.2624 47.8901 12.3778 47.8657 12.3778 47.7804C12.3778 47.7013 12.2817 47.6708 12.0316 47.6708C11.6936 47.6708 11.6854 47.6648 11.6854 47.415C11.6854 47.1653 11.6936 47.1592 12.0316 47.1592C12.2817 47.1592 12.3778 47.1288 12.3778 47.0496C12.3778 46.9705 12.2817 46.94 12.0316 46.94C11.6936 46.94 11.6854 46.9339 11.6854 46.6842C11.6854 46.4345 11.6936 46.4284 12.0316 46.4284C12.2817 46.4284 12.3778 46.3979 12.3778 46.3188C12.3778 46.2335 12.2624 46.2092 11.8585 46.2092H11.3391V47.0496ZM14.3399 46.2579C14.3081 46.2847 14.2821 46.6629 14.2821 47.0984V47.8901H14.7582C15.4502 47.8901 15.5805 47.7569 15.5805 47.0496C15.5805 46.3594 15.4439 46.2092 14.816 46.2092C14.5858 46.2092 14.3716 46.2311 14.3399 46.2579ZM16.3596 47.0496V47.8901H16.8789C17.2829 47.8901 17.3983 47.8657 17.3983 47.7804C17.3983 47.7013 17.3021 47.6708 17.052 47.6708C16.714 47.6708 16.7058 47.6648 16.7058 47.415C16.7058 47.1653 16.714 47.1592 17.052 47.1592C17.3021 47.1592 17.3983 47.1288 17.3983 47.0496C17.3983 46.9705 17.3021 46.94 17.052 46.94C16.714 46.94 16.7058 46.9339 16.7058 46.6842C16.7058 46.4345 16.714 46.4284 17.052 46.4284C17.3021 46.4284 17.3983 46.3979 17.3983 46.3188C17.3983 46.2335 17.2829 46.2092 16.8789 46.2092H16.3596V47.0496ZM18.1773 47.0496V47.8901H18.6967C19.1006 47.8901 19.216 47.8657 19.216 47.7804C19.216 47.7013 19.1199 47.6708 18.8698 47.6708C18.5318 47.6708 18.5236 47.6648 18.5236 47.415C18.5236 47.1653 18.5318 47.1592 18.8698 47.1592C19.1199 47.1592 19.216 47.1288 19.216 47.0496C19.216 46.9705 19.1199 46.94 18.8698 46.94C18.5318 46.94 18.5236 46.9339 18.5236 46.6842C18.5236 46.4345 18.5318 46.4284 18.8698 46.4284C19.1199 46.4284 19.216 46.3979 19.216 46.3188C19.216 46.2335 19.1006 46.2092 18.6967 46.2092H18.1773V47.0496ZM19.9951 47.0409C19.9951 47.8413 20.005 47.8901 20.1682 47.8901C20.3185 47.8901 20.3413 47.8413 20.3413 47.5198C20.3413 47.159 20.3474 47.1501 20.5793 47.1727C20.7973 47.1938 20.8196 47.225 20.8438 47.5429C20.8667 47.8448 20.8949 47.8901 21.0602 47.8901C21.2349 47.8901 21.2478 47.8602 21.2198 47.5195C21.2018 47.3001 21.1428 47.1339 21.075 47.1119C20.9882 47.0838 21.0008 47.0409 21.127 46.9344C21.3229 46.769 21.3394 46.5826 21.1752 46.393C21.0889 46.2932 20.914 46.2477 20.526 46.224L19.9951 46.1916V47.0409ZM23.341 46.3428C23.0311 46.6319 23.1894 46.9354 23.782 47.1888C24.1229 47.3346 24.1757 47.6308 23.8752 47.7114C23.6803 47.7636 23.4574 47.598 23.4574 47.4011C23.4574 47.3485 23.399 47.3054 23.3276 47.3054C23.1406 47.3054 23.1612 47.6933 23.3561 47.8422C23.57 48.0057 24.0853 47.9984 24.2663 47.8295C24.5807 47.5362 24.3683 47.1375 23.79 46.9352C23.5866 46.8641 23.5402 46.8074 23.5611 46.6555C23.5916 46.4332 23.9427 46.3415 24.0297 46.5329C24.0933 46.6728 24.4096 46.6866 24.4096 46.5494C24.4096 46.2389 23.6168 46.0856 23.341 46.3428ZM25.1065 46.3317C25.1089 46.405 25.177 46.7774 25.258 47.1592C25.3965 47.8135 25.4179 47.8548 25.6285 47.8754C25.8465 47.8969 25.8547 47.8817 25.9664 47.2542C26.0927 46.5435 26.1033 46.5457 26.2555 47.3164C26.3534 47.8119 26.3788 47.8552 26.585 47.8757C26.8056 47.8974 26.8105 47.8871 26.9628 47.088C27.0476 46.6426 27.0938 46.2587 27.0654 46.2347C26.9139 46.1067 26.7604 46.3062 26.706 46.702C26.6228 47.307 26.5232 47.3952 26.451 46.9278C26.3516 46.2847 26.3143 46.2092 26.0959 46.2092C25.9156 46.2092 25.8873 46.2593 25.7965 46.739C25.7412 47.0304 25.6854 47.3018 25.6723 47.3419C25.6593 47.3821 25.5937 47.1524 25.5268 46.8313C25.4334 46.3838 25.3697 46.2418 25.2536 46.223C25.153 46.2067 25.1035 46.2432 25.1065 46.3317ZM27.7854 47.0496V47.8901H28.3048C28.7087 47.8901 28.8241 47.8657 28.8241 47.7804C28.8241 47.7013 28.728 47.6708 28.4779 47.6708C28.1399 47.6708 28.1317 47.6648 28.1317 47.415C28.1317 47.1653 28.1399 47.1592 28.4779 47.1592C28.728 47.1592 28.8241 47.1288 28.8241 47.0496C28.8241 46.9705 28.728 46.94 28.4779 46.94C28.1399 46.94 28.1317 46.9339 28.1317 46.6842C28.1317 46.4345 28.1399 46.4284 28.4779 46.4284C28.728 46.4284 28.8241 46.3979 28.8241 46.3188C28.8241 46.2335 28.7087 46.2092 28.3048 46.2092H27.7854V47.0496ZM29.6609 46.2579C29.6291 46.2847 29.6032 46.6629 29.6032 47.0984V47.8901H30.0792C30.7712 47.8901 30.9016 47.7569 30.9016 47.0496C30.9016 46.3594 30.7649 46.2092 30.137 46.2092C29.9068 46.2092 29.6926 46.2311 29.6609 46.2579ZM31.6806 47.0496V47.8901H32.2C32.6039 47.8901 32.7193 47.8657 32.7193 47.7804C32.7193 47.7013 32.6231 47.6708 32.3731 47.6708C32.0351 47.6708 32.0268 47.6648 32.0268 47.415C32.0268 47.1653 32.0351 47.1592 32.3731 47.1592C32.6231 47.1592 32.7193 47.1288 32.7193 47.0496C32.7193 46.9705 32.6231 46.94 32.3731 46.94C32.0351 46.94 32.0268 46.9339 32.0268 46.6842C32.0268 46.4345 32.0351 46.4284 32.3731 46.4284C32.6231 46.4284 32.7193 46.3979 32.7193 46.3188C32.7193 46.2335 32.6039 46.2092 32.2 46.2092H31.6806V47.0496ZM33.5561 46.2579C33.5243 46.2847 33.4983 46.6629 33.4983 47.0984C33.4983 47.8413 33.509 47.8901 33.6715 47.8901C33.8309 47.8901 33.845 47.8397 33.8505 47.2506L33.8563 46.6111L34.0885 47.2504C34.3067 47.8513 34.3349 47.8896 34.5587 47.8898L34.7967 47.8901V47.0496C34.7967 46.3613 34.7739 46.2092 34.6703 46.2092C34.5709 46.2092 34.5384 46.3461 34.5188 46.8486L34.4938 47.4881L34.253 46.8486C34.0422 46.2889 33.9873 46.2092 33.813 46.2092C33.7034 46.2092 33.5878 46.2311 33.5561 46.2579ZM14.6284 47.0496C14.6284 47.6491 14.6353 47.6708 14.8275 47.6708C15.1421 47.6708 15.2343 47.53 15.2343 47.0496C15.2343 46.5693 15.1421 46.4284 14.8275 46.4284C14.6353 46.4284 14.6284 46.4501 14.6284 47.0496ZM20.3413 46.689C20.3413 46.9281 20.3603 46.9478 20.5706 46.9266C21.0507 46.8782 21.0294 46.4284 20.5471 46.4284C20.3689 46.4284 20.3413 46.4634 20.3413 46.689ZM29.9494 47.0496C29.9494 47.6491 29.9563 47.6708 30.1485 47.6708C30.4631 47.6708 30.5553 47.53 30.5553 47.0496C30.5553 46.5693 30.4631 46.4284 30.1485 46.4284C29.9563 46.4284 29.9494 46.4501 29.9494 47.0496Z" fill="white"/>
</svg>