<svg width="127" height="37" viewBox="0 0 127 37" fill="none" xmlns="http://www.w3.org/2000/svg">
<path fill-rule="evenodd" clip-rule="evenodd" d="M8.32901 1.39917C7.3022 2.50222 6.63917 3.85568 5.90963 6.33807C5.36322 8.19706 4.49331 9.98386 3.88773 10.4905C3.64208 10.6961 3.34296 10.7213 3.18922 10.5494C2.99925 10.337 2.59138 9.54119 2.37313 8.95715C2.09229 8.20557 2.04147 7.30261 2.21274 6.10837C2.33183 5.278 2.33348 3.7741 2.21562 3.50087C2.06667 3.15566 1.85623 3.47595 1.43644 4.68646C1.02336 5.87798 0.919201 6.46352 0.917489 7.60403C0.915914 8.70333 1.02411 9.38578 1.37049 10.4612C1.60778 11.1978 2.703 13.3736 3.75453 15.1974C5.50162 18.2277 6.66005 21.3071 6.54158 22.6063C6.50076 23.0544 6.3612 23.2991 6.04084 23.4844C5.76836 23.642 3.77254 23.7617 2.82524 23.6774L2.13618 23.616L1.48986 23.1783C0.745875 22.6746 0.326017 22.4503 0.127147 22.4503C-0.067408 22.4503 -0.0512464 22.5134 0.263288 22.9818C0.60905 23.4968 1.23737 24.0801 1.67373 24.2916C1.98025 24.44 2.1255 24.4572 3.44575 24.5009C4.97035 24.5513 5.67372 24.6512 6.59589 24.9485C7.45224 25.2246 7.59783 25.3227 8.62512 26.3165C10.509 28.1387 11.0973 29.2528 10.502 29.8706C10.3984 29.9782 10.0412 30.1662 9.65761 30.3152C8.30709 30.8398 7.3652 31.3898 6.32196 32.2631C5.5497 32.9096 4.31519 33.3762 2.92324 33.5478C1.90882 33.6727 1.85493 33.6845 1.69133 33.8162L1.53649 33.9409L1.70359 34.035C1.96696 34.1832 3.35898 34.1436 4.23328 33.963C5.55093 33.6909 6.81653 33.1696 7.59181 32.5796C8.79037 31.6676 10.2082 31.0225 11.0496 31.0064C11.4866 30.998 11.5688 31.0193 11.9327 31.2355C12.8462 31.7782 13.4076 32.4917 13.4091 33.1122C13.4102 33.5537 12.6815 35.3029 12.2688 35.8494C11.888 36.3537 11.7278 36.0695 11.5916 34.648C11.5332 34.0399 11.4525 33.4599 11.412 33.3593L11.3385 33.1764L11.2523 33.3807C11.2049 33.4931 11.1162 33.9277 11.0552 34.3465C10.7951 36.1345 11.0027 36.754 11.9315 36.9607C12.3881 37.0623 12.7058 36.9706 13.0365 36.6418C13.3577 36.3223 13.4624 36.1098 13.8194 35.0525L14.1288 34.1363L14.5397 33.9767C14.7657 33.889 15.0338 33.7279 15.1356 33.6186C15.64 33.0771 15.5146 32.0579 14.8936 31.6518C13.829 30.9557 12.147 28.8576 11.0113 26.8088C10.5692 26.0114 9.76266 24.8252 9.02505 23.8877L8.46816 23.1798L7.68035 20.8231C6.7045 17.9039 5.92046 15.7988 5.39466 14.6867C5.07451 14.0094 4.97911 13.7283 4.92809 13.3117C4.79866 12.2557 5.09484 10.9913 5.79671 9.60357C5.98353 9.23426 6.62136 8.13522 7.21413 7.16136C8.32572 5.3352 8.96705 4.14587 9.26597 3.35602C9.5853 2.51244 9.45902 2.5157 8.77092 3.36896C8.5085 3.69435 8.03926 4.32102 7.72809 4.76151C7.41698 5.20206 7.13874 5.57703 7.10984 5.59481C7.02691 5.64575 7.22728 4.69981 7.42677 4.09847C7.65906 3.39831 8.04077 2.55064 8.48172 1.75582C8.95794 0.897392 8.90699 0.778349 8.32901 1.39917ZM25.6708 1.01957C25.6692 1.0876 25.8228 1.42246 26.0121 1.76365C26.4489 2.55112 26.8311 3.40042 27.0627 4.09847C27.2622 4.69981 27.4625 5.64575 27.3796 5.59481C27.3507 5.57703 27.0723 5.20206 26.7607 4.76151C26.0367 3.73753 25.2854 2.79417 25.154 2.74405C25.0092 2.68875 25.0245 2.8302 25.2188 3.34369C25.5158 4.12836 26.1745 5.35093 27.2759 7.16136C27.8684 8.13522 28.5059 9.23426 28.6927 9.60357C29.396 10.9942 29.7021 12.305 29.5633 13.3316C29.5117 13.7127 29.3974 14.0427 29.0938 14.6867C28.5676 15.8024 27.7822 17.9121 26.8091 20.8231L26.0213 23.1798L25.4644 23.8877C24.7268 24.8252 23.9203 26.0114 23.4782 26.8088C22.3424 28.8576 20.6604 30.9557 19.5958 31.6518C18.9748 32.0579 18.8494 33.0771 19.3539 33.6186C19.4556 33.7279 19.7237 33.889 19.9497 33.9767L20.3606 34.1363L20.67 35.0525C21.0271 36.1098 21.1318 36.3223 21.453 36.6418C21.7837 36.9706 22.1013 37.0623 22.5579 36.9607C23.4847 36.7545 23.6892 36.1501 23.4381 34.3599C23.3793 33.9408 23.2907 33.503 23.2411 33.3871L23.151 33.1764L23.0774 33.3593C23.0369 33.4599 22.9562 34.0399 22.8978 34.648C22.7616 36.0695 22.6015 36.3537 22.2206 35.8494C21.8069 35.3015 21.0797 33.5546 21.0797 33.1085C21.0797 32.5024 21.6575 31.7697 22.5567 31.2355C22.9206 31.0193 23.0028 30.998 23.4398 31.0064C24.2812 31.0225 25.6991 31.6676 26.8976 32.5796C27.6729 33.1696 28.9385 33.6909 30.2562 33.963C31.1305 34.1436 32.5225 34.1832 32.7859 34.035L32.9529 33.9409L32.7981 33.8162C32.6345 33.6845 32.5806 33.6727 31.5662 33.5478C30.1743 33.3762 28.9397 32.9096 28.1675 32.2631C27.1242 31.3898 26.1823 30.8398 24.8318 30.3152C24.4482 30.1662 24.091 29.9782 23.9874 29.8706C23.3921 29.2528 23.9805 28.1387 25.8643 26.3165C26.8916 25.3227 27.0372 25.2246 27.8936 24.9485C28.8157 24.6512 29.5191 24.5513 31.0437 24.5009C32.3639 24.4572 32.5092 24.44 32.8157 24.2916C33.2521 24.0801 33.8804 23.4968 34.2261 22.9818C34.5407 22.5134 34.5568 22.4503 34.3623 22.4503C34.1634 22.4503 33.7436 22.6746 32.9996 23.1783L32.3533 23.616L31.6642 23.6774C30.7169 23.7617 28.7211 23.642 28.4486 23.4844C27.8355 23.1298 27.7736 22.3069 28.2397 20.7075C28.6424 19.3255 29.695 17.0011 30.7349 15.1974C31.7864 13.3736 32.8817 11.1978 33.1189 10.4612C33.4653 9.38578 33.5735 8.70333 33.5719 7.60403C33.5702 6.46352 33.4661 5.87798 33.053 4.68646C32.6332 3.47595 32.4228 3.15566 32.2738 3.50087C32.156 3.7741 32.1576 5.278 32.2767 6.10837C32.448 7.30261 32.3972 8.20557 32.1163 8.95715C31.8981 9.54119 31.4902 10.337 31.3002 10.5494C31.1465 10.7213 30.8474 10.6961 30.6017 10.4905C29.9961 9.98386 29.1262 8.19706 28.5798 6.33807C28.0476 4.52731 27.4874 3.19298 26.8724 2.27149C26.5106 1.72953 25.6746 0.858438 25.6708 1.01957Z" fill="white" fill-opacity="0.971"/>
<path fill-rule="evenodd" clip-rule="evenodd" d="M43.6306 7.01968C43.6903 7.36266 44.2505 11.139 44.8757 15.4118C45.5008 19.6847 46.0564 23.3749 46.1102 23.6122C46.1971 23.9951 46.3254 24.0438 47.2464 24.0438C48.1668 24.0438 48.2959 23.9949 48.3845 23.6122C48.4392 23.3749 48.8278 21.0278 49.2479 18.3968C49.6678 15.7656 50.0442 13.5798 50.0841 13.5395C50.124 13.4992 50.2052 13.7098 50.2643 14.0073C50.4597 14.9898 51.9037 23.6644 51.9037 23.856C51.9037 24.1468 54.1839 24.095 54.1896 23.804C54.1922 23.6722 54.7749 19.7014 55.4845 14.9803L56.7748 6.39626H55.5784C54.1652 6.39626 54.354 5.9566 53.808 10.5204C53.3054 14.7205 53.0138 16.788 52.9353 16.7086C52.9007 16.6738 52.5259 14.5335 52.102 11.9524C51.6782 9.37121 51.2874 7.06513 51.2338 6.82785C51.1471 6.44478 51.019 6.39626 50.0942 6.39626C49.5211 6.39626 49.0523 6.47375 49.0523 6.56832C49.0523 6.90707 47.5083 16.6502 47.4445 16.7147C47.3521 16.8077 47.2183 15.869 46.6702 11.2877C46.0173 5.83039 46.238 6.39626 44.763 6.39626H43.5223L43.6306 7.01968ZM57.9867 15.22V24.0438H59.2223H60.4579V20.0075V15.9712L61.9311 16.0272L63.4043 16.0832L63.4557 20.0635L63.5072 24.0438H64.7388H65.9706V15.22V6.39626H64.735H63.4994V10.0409V13.6855H61.9786H60.4579V10.0409V6.39626H59.2223H57.9867V15.22ZM67.4913 15.22V24.0438H68.7269H69.9626V15.22V6.39626H68.7269H67.4913V15.22ZM70.5328 7.6431V8.88993H71.9585H73.3842V16.4669V24.0438H74.6198H75.8554V16.4753V8.90681L77.2336 8.85042L78.6118 8.79403L78.6684 7.59514L78.7249 6.39626H74.629H70.5328V7.6431ZM79.6573 15.22V24.0438H83.079H86.5007V22.797V21.5501H84.3146H82.1285V18.7687V15.9873H83.7443H85.3601V14.8364V13.6855H83.7443H82.1285V11.2877V8.88993H84.3146H86.5007V7.6431V6.39626H83.079H79.6573V15.22ZM91.253 15.22V24.0438L93.2965 24.0392C96.6823 24.0313 97.9378 23.5059 98.7368 21.7627C99.1212 20.9238 99.1419 20.5904 99.1419 15.22C99.1419 9.84961 99.1212 9.51623 98.7368 8.6774C97.9378 6.93413 96.6823 6.40872 93.2965 6.40086L91.253 6.39626V15.22ZM100.568 15.22V24.0438H103.989H107.411V22.797V21.5501H105.225H103.039V18.7687V15.9873H104.655H106.27V14.8364V13.6855H104.655H103.039V11.2877V8.88993H105.225H107.411V7.6431V6.39626H103.989H100.568V15.22ZM108.742 15.1951V24.0438H109.977H111.213V20.3033V16.5628H111.772C112.079 16.5628 112.394 16.6666 112.472 16.7933C112.55 16.9203 112.969 18.5819 113.403 20.4859L114.192 23.9479L115.534 24.0039L116.876 24.0597L115.88 20.0547L114.884 16.0497L115.506 15.3652C116.304 14.4859 116.533 13.6181 116.534 11.4601C116.535 9.55881 116.338 8.73033 115.664 7.814C114.914 6.79217 114.083 6.53187 111.26 6.43366L108.742 6.34619V15.1951ZM117.866 15.1951V24.0438H119.102H120.337V20.3033V16.5628H120.896C121.204 16.5628 121.519 16.6666 121.597 16.7933C121.674 16.9203 122.093 18.5819 122.527 20.4859L123.317 23.9479L124.658 24.0039L126 24.0597L125.004 20.0547L124.009 16.0497L124.63 15.3652C125.429 14.4859 125.658 13.6181 125.659 11.4601C125.66 9.55881 125.462 8.73033 124.789 7.814C124.038 6.79217 123.208 6.53187 120.385 6.43366L117.866 6.34619V15.1951ZM93.7242 15.22V21.5501H94.6416C96.4621 21.5501 96.7336 20.7286 96.7336 15.22C96.7336 9.7115 96.4621 8.88993 94.6416 8.88993H93.7242V15.22ZM111.213 11.5754V14.2609H112.163C113.288 14.2609 113.787 13.8671 113.981 12.8265C114.177 11.7734 113.986 9.95454 113.622 9.39289C113.335 8.95151 113.168 8.88993 112.254 8.88993H111.213V11.5754ZM120.337 11.5754V14.2609H121.288C122.413 14.2609 122.912 13.8671 123.105 12.8265C123.301 11.7734 123.111 9.95454 122.746 9.39289C122.459 8.95151 122.292 8.88993 121.378 8.88993H120.337V11.5754ZM63.8796 27.5925C63.8796 27.7935 64.0803 27.8802 64.5449 27.8802H65.2102V29.7984C65.2102 31.3756 65.261 31.7166 65.4954 31.7166C65.7297 31.7166 65.7805 31.3756 65.7805 29.7984V27.8802H66.2557C67.1262 27.8802 66.7456 27.5518 65.733 27.4291C64.2101 27.2445 63.8796 27.2737 63.8796 27.5925ZM68.6319 29.4856V31.7166H69.6774C70.48 31.7166 70.7229 31.6499 70.7229 31.4289C70.7229 31.2212 70.5117 31.1412 69.9626 31.1412C69.2202 31.1412 69.2022 31.1253 69.2022 30.4698C69.2022 29.8144 69.2202 29.7984 69.9626 29.7984C70.5117 29.7984 70.7229 29.7184 70.7229 29.5107C70.7229 29.303 70.5117 29.223 69.9626 29.223C69.2202 29.223 69.2022 29.207 69.2022 28.5516C69.2022 27.8961 69.2202 27.8802 69.9626 27.8802C70.3808 27.8802 70.7229 27.7939 70.7229 27.6884C70.7229 27.5829 70.5733 27.4956 70.3903 27.4945C70.2072 27.4933 69.7369 27.4388 69.3447 27.3734L68.6319 27.2545V29.4856ZM75.4277 27.4369C75.1365 27.5138 75.0951 27.7858 75.0951 29.6206V31.7166H75.9081C76.3554 31.7166 76.9114 31.5822 77.1437 31.418C77.5233 31.1498 77.5663 30.9557 77.5663 29.5107C77.5663 28.0657 77.5233 27.8716 77.1437 27.6034C76.7354 27.3147 76.1183 27.2549 75.4277 27.4369ZM79.6573 29.4856V31.7166H80.7028C81.5054 31.7166 81.7483 31.6499 81.7483 31.4289C81.7483 31.2212 81.5371 31.1412 80.988 31.1412C80.2457 31.1412 80.2276 31.1253 80.2276 30.4698C80.2276 29.8144 80.2457 29.7984 80.988 29.7984C81.5371 29.7984 81.7483 29.7184 81.7483 29.5107C81.7483 29.303 81.5371 29.223 80.988 29.223C80.2457 29.223 80.2276 29.207 80.2276 28.5516C80.2276 27.8961 80.2457 27.8802 80.988 27.8802C81.4062 27.8802 81.7483 27.7939 81.7483 27.6884C81.7483 27.5829 81.5987 27.4956 81.4157 27.4945C81.2326 27.4933 80.7623 27.4388 80.3702 27.3734L79.6573 27.2545V29.4856ZM83.6493 29.4856V31.7166H84.6948C85.4974 31.7166 85.7403 31.6499 85.7403 31.4289C85.7403 31.2212 85.5291 31.1412 84.9799 31.1412C84.2376 31.1412 84.2195 31.1253 84.2195 30.4698C84.2195 29.8144 84.2376 29.7984 84.9799 29.7984C85.5291 29.7984 85.7403 29.7184 85.7403 29.5107C85.7403 29.303 85.5291 29.223 84.9799 29.223C84.2376 29.223 84.2195 29.207 84.2195 28.5516C84.2195 27.8961 84.2376 27.8802 84.9799 27.8802C85.3981 27.8802 85.7403 27.7939 85.7403 27.6884C85.7403 27.5829 85.5905 27.4956 85.4076 27.4945C85.2246 27.4933 84.7543 27.4388 84.3621 27.3734L83.6493 27.2545V29.4856ZM87.6412 29.5143C87.6412 31.3441 87.6895 31.7166 87.9264 31.7166C88.1417 31.7166 88.2115 31.4822 88.2115 30.7575C88.2115 29.8276 88.2282 29.7984 88.7615 29.7984C89.3755 29.7984 89.5422 30.0681 89.5422 31.061C89.5422 31.516 89.6294 31.7166 89.8273 31.7166C90.2094 31.7166 90.2119 30.4107 89.8307 29.8617C89.5821 29.5032 89.5821 29.4284 89.8307 29.2201C90.2231 28.8915 90.1904 27.9341 89.7798 27.7218C89.5969 27.6272 89.0409 27.4962 88.5442 27.431L87.6412 27.3121V29.5143ZM95.1191 27.4964C94.1495 27.891 94.4281 29.1578 95.602 29.692C96.4066 30.0582 96.6724 30.4717 96.4606 31.0286C96.2656 31.5413 95.1676 31.3627 95.0891 30.8055C95.021 30.3219 94.4846 30.2055 94.4846 30.6743C94.4846 31.9305 96.5353 32.3531 96.9744 31.1874C97.239 30.4852 97.0199 30.0309 96.2163 29.6174C95.2974 29.1443 94.9933 28.762 95.1471 28.2731C95.2982 27.7922 96.3855 27.6999 96.3855 28.168C96.3855 28.3262 96.5138 28.4557 96.6707 28.4557C97.1603 28.4557 97.0009 27.6961 96.4682 27.4918C95.893 27.2712 95.6708 27.272 95.1191 27.4964ZM104.75 29.4856V31.7166H105.795C106.598 31.7166 106.841 31.6499 106.841 31.4289C106.841 31.2212 106.629 31.1412 106.08 31.1412C105.338 31.1412 105.32 31.1253 105.32 30.4698C105.32 29.8144 105.338 29.7984 106.08 29.7984C106.629 29.7984 106.841 29.7184 106.841 29.5107C106.841 29.303 106.629 29.223 106.08 29.223C105.338 29.223 105.32 29.207 105.32 28.5516C105.32 27.8961 105.338 27.8802 106.08 27.8802C106.498 27.8802 106.841 27.7939 106.841 27.6884C106.841 27.5829 106.691 27.4956 106.508 27.4945C106.325 27.4933 105.855 27.4388 105.462 27.3734L104.75 27.2545V29.4856ZM109.074 27.4369C108.783 27.5138 108.742 27.7858 108.742 29.6206V31.7166H109.555C110.002 31.7166 110.558 31.5822 110.79 31.418C111.17 31.1498 111.213 30.9557 111.213 29.5107C111.213 28.0657 111.17 27.8716 110.79 27.6034C110.382 27.3147 109.765 27.2549 109.074 27.4369ZM113.304 29.4856V31.7166H114.349C115.152 31.7166 115.395 31.6499 115.395 31.4289C115.395 31.2212 115.184 31.1412 114.634 31.1412C113.892 31.1412 113.874 31.1253 113.874 30.4698C113.874 29.8144 113.892 29.7984 114.634 29.7984C115.184 29.7984 115.395 29.7184 115.395 29.5107C115.395 29.303 115.184 29.223 114.634 29.223C113.892 29.223 113.874 29.207 113.874 28.5516C113.874 27.8961 113.892 27.8802 114.634 27.8802C115.053 27.8802 115.395 27.7939 115.395 27.6884C115.395 27.5829 115.245 27.4956 115.062 27.4945C114.879 27.4933 114.409 27.4388 114.017 27.3734L113.304 27.2545V29.4856ZM51.3507 29.3668C51.541 30.3954 51.7005 31.3451 51.7052 31.4769C51.7098 31.6088 51.8778 31.7166 52.0788 31.7166C52.4688 31.7166 52.4878 31.6597 52.8791 29.3189C53.1347 27.7901 53.2395 27.9326 53.6187 30.3259C53.8029 31.4891 53.8983 31.7166 54.2019 31.7166C54.4017 31.7166 54.565 31.6831 54.565 31.6418C54.565 31.534 55.1256 28.44 55.2379 27.9282C55.3012 27.6395 55.2438 27.4966 55.0644 27.4966C54.764 27.4966 54.6524 27.8607 54.4618 29.4652C54.3895 30.0733 54.2683 30.6096 54.1922 30.657C54.116 30.7046 53.9411 30.0129 53.8035 29.12C53.5927 27.7521 53.4972 27.4966 53.1976 27.4966C52.7777 27.4966 52.7551 27.5551 52.4639 29.3985C52.216 30.9657 52.0244 30.9139 51.8161 29.223C51.6408 27.7998 51.5416 27.4966 51.2515 27.4966C51.0562 27.4966 51.077 27.8864 51.3507 29.3668ZM57.2263 29.6066C57.2263 31.3543 57.2753 31.7166 57.5114 31.7166C57.7268 31.7166 57.7966 31.4822 57.7966 30.7575V29.7984H58.4619H59.1272V30.7575C59.1272 31.4822 59.197 31.7166 59.4124 31.7166C59.6485 31.7166 59.6975 31.3543 59.6975 29.6066C59.6975 27.8589 59.6485 27.4966 59.4124 27.4966C59.2012 27.4966 59.1272 27.7204 59.1272 28.3598C59.1272 29.2184 59.1236 29.223 58.4619 29.223C57.8002 29.223 57.7966 29.2184 57.7966 28.3598C57.7966 27.7204 57.7226 27.4966 57.5114 27.4966C57.2753 27.4966 57.2263 27.8589 57.2263 29.6066ZM61.7885 29.6066C61.7885 31.3543 61.8376 31.7166 62.0737 31.7166C62.3098 31.7166 62.3588 31.3543 62.3588 29.6066C62.3588 27.8589 62.3098 27.4966 62.0737 27.4966C61.8376 27.4966 61.7885 27.8589 61.7885 29.6066ZM99.0641 29.3668C99.2544 30.3954 99.4139 31.3451 99.4187 31.4769C99.4232 31.6088 99.5913 31.7166 99.7922 31.7166C100.182 31.7166 100.201 31.6597 100.592 29.3189C100.848 27.7901 100.953 27.9326 101.332 30.3259C101.516 31.4891 101.612 31.7166 101.915 31.7166C102.115 31.7166 102.278 31.6831 102.278 31.6418C102.278 31.534 102.839 28.44 102.951 27.9282C103.015 27.6395 102.957 27.4966 102.778 27.4966C102.477 27.4966 102.366 27.8607 102.175 29.4652C102.103 30.0733 101.982 30.6096 101.906 30.657C101.829 30.7046 101.655 30.0129 101.517 29.12C101.306 27.7521 101.211 27.4966 100.911 27.4966C100.491 27.4966 100.469 27.5551 100.177 29.3985C99.9294 30.9657 99.7378 30.9139 99.5295 29.223C99.3542 27.7998 99.255 27.4966 98.9649 27.4966C98.7697 27.4966 98.7904 27.8864 99.0641 29.3668ZM117.296 29.6066C117.296 31.3543 117.345 31.7166 117.581 31.7166C117.814 31.7166 117.869 31.3742 117.881 29.8464C117.889 28.8178 117.927 28.0625 117.966 28.168C118.004 28.2735 118.259 29.1152 118.533 30.0382C118.981 31.5525 119.075 31.7166 119.493 31.7166C119.957 31.7166 119.957 31.7155 119.957 29.6066C119.957 27.8829 119.906 27.4966 119.679 27.4966C119.459 27.4966 119.39 27.867 119.347 29.2709L119.292 31.0453L118.74 29.2709C118.249 27.6957 118.137 27.4966 117.742 27.4966C117.301 27.4966 117.296 27.5209 117.296 29.6066ZM75.6654 29.5107V31.1656L76.2832 31.1053L76.901 31.0453V29.5107V27.9761L76.2832 27.9161L75.6654 27.8559V29.5107ZM88.2115 28.5516C88.2115 29.2209 88.2349 29.245 88.8293 29.1871C89.3758 29.134 89.4471 29.0607 89.4471 28.5516C89.4471 28.0425 89.3758 27.9692 88.8293 27.9161C88.2349 27.8582 88.2115 27.8823 88.2115 28.5516ZM109.312 29.5107V31.1656L109.93 31.1053L110.547 31.0453V29.5107V27.9761L109.93 27.9161L109.312 27.8559V29.5107Z" fill="white" fill-opacity="0.971"/>
</svg>

