<svg width="27" height="28" viewBox="0 0 27 28" fill="none" xmlns="http://www.w3.org/2000/svg">
<path d="M4.62298 4.13825C5.19368 2.21382 5.71236 1.16457 6.51561 0.309449C6.96775 -0.171831 7.00761 -0.0795451 6.63507 0.585936C6.29013 1.20211 5.99152 1.85925 5.8098 2.40203C5.65375 2.86821 5.497 3.60154 5.56188 3.56205C5.58448 3.54827 5.80214 3.25758 6.04552 2.91605C6.28895 2.57457 6.65602 2.08875 6.8613 1.83649C7.39959 1.17502 7.49838 1.17249 7.24857 1.82646C7.01473 2.43878 6.51304 3.36079 5.64347 4.77649C5.17975 5.53146 4.68079 6.38347 4.53464 6.66977C3.98559 7.74558 3.75389 8.72577 3.85514 9.54441C3.89505 9.86741 3.96968 10.0853 4.22013 10.6103C4.63145 11.4725 5.24479 13.1044 6.00818 15.3675L6.62446 17.1945L7.06011 17.7433C7.63713 18.4701 8.26804 19.3896 8.61389 20.0079C9.50238 21.5961 10.8181 23.2227 11.651 23.7623C12.1368 24.0771 12.2348 24.8672 11.8402 25.287C11.7606 25.3717 11.5509 25.4966 11.3741 25.5646L11.0527 25.6883L10.8106 26.3986C10.5313 27.2183 10.4494 27.383 10.1982 27.6307C9.93946 27.8856 9.69095 27.9567 9.33379 27.8779C8.6072 27.7177 8.44477 27.2375 8.64829 25.8513C8.69596 25.5266 8.76534 25.1897 8.80241 25.1026L8.86986 24.9442L8.92739 25.086C8.95905 25.164 9.02221 25.6136 9.06786 26.085C9.17441 27.187 9.29972 27.4073 9.59763 27.0164C9.92045 26.5927 10.4905 25.2367 10.4896 24.8944C10.4885 24.4134 10.0493 23.8603 9.3347 23.4395C9.05002 23.272 8.98573 23.2554 8.64389 23.2619C7.98566 23.2744 6.87652 23.7745 5.93891 24.4816C5.33243 24.9389 4.34238 25.3431 3.31161 25.554C2.62766 25.694 1.53871 25.7247 1.33268 25.6098L1.20196 25.5369L1.32309 25.4402C1.45107 25.3381 1.49323 25.329 2.28679 25.2321C3.37568 25.0991 4.34141 24.7373 4.94554 24.2362C5.76164 23.5592 6.49846 23.1328 7.55495 22.7261C7.85505 22.6106 8.13448 22.4648 8.21548 22.3815C8.68118 21.9025 8.22095 21.0388 6.74725 19.6262C5.94363 18.8558 5.82973 18.7797 5.15982 18.5657C4.43843 18.3352 3.8882 18.2578 2.69554 18.2186C1.66273 18.1848 1.54911 18.1715 1.30932 18.0564C0.967965 17.8925 0.476447 17.4402 0.205965 17.041C-0.040089 16.6779 -0.0527318 16.629 0.0994646 16.629C0.255036 16.629 0.583482 16.8029 1.16548 17.1934L1.67109 17.5327L2.21013 17.5802C2.95118 17.6457 4.51247 17.5528 4.72563 17.4306C4.97623 17.287 5.08541 17.0973 5.11734 16.7499C5.21002 15.7428 4.3038 13.3555 2.93709 11.0063C2.1145 9.59245 1.25773 7.9057 1.07211 7.33462C0.801143 6.50093 0.7165 5.97188 0.717732 5.11966C0.719072 4.2355 0.800554 3.78157 1.1237 2.85787C1.45209 1.91943 1.61671 1.67114 1.73323 1.93876C1.82543 2.15057 1.82414 3.31644 1.73098 3.96017C1.597 4.88599 1.63675 5.586 1.85645 6.16864C2.02718 6.62141 2.34625 7.23838 2.49486 7.40304C2.61513 7.5363 2.84913 7.51676 3.04129 7.35737C3.51502 6.96458 4.19554 5.5794 4.62298 4.13825Z" fill="black" fill-opacity="0.971"/>
<path d="M20.3487 0.592008C20.2006 0.327505 20.0805 0.0679115 20.0817 0.0151692C20.0847 -0.109744 20.7387 0.565557 21.0217 0.9857C21.5028 1.70007 21.9411 2.73448 22.3574 4.13825C22.7848 5.5794 23.4653 6.96458 23.9391 7.35737C24.1312 7.51676 24.3652 7.5363 24.4855 7.40304C24.6341 7.23838 24.9532 6.62141 25.1239 6.16864C25.3436 5.586 25.3834 4.88599 25.2494 3.96017C25.1562 3.31644 25.1549 2.15057 25.2471 1.93876C25.3636 1.67114 25.5283 1.91943 25.8567 2.85787C26.1798 3.78157 26.2613 4.2355 26.2626 5.11966C26.2639 5.97188 26.1792 6.50093 25.9083 7.33462C25.7226 7.9057 24.8659 9.59245 24.0433 11.0063C23.2298 12.4046 22.4063 14.2065 22.0913 15.2779C21.7267 16.5178 21.7752 17.1558 22.2547 17.4306C22.4679 17.5528 24.0292 17.6457 24.7702 17.5802L25.3093 17.5327L25.8149 17.1934C26.3969 16.8029 26.7253 16.629 26.8809 16.629C27.0331 16.629 27.0204 16.6779 26.7744 17.041C26.5039 17.4402 26.0124 17.8925 25.671 18.0564C25.4313 18.1715 25.3176 18.1848 24.2848 18.2186C23.0922 18.2578 22.5419 18.3352 21.8205 18.5657C21.1506 18.7797 21.0367 18.8558 20.2331 19.6262C18.7594 21.0388 18.2992 21.9025 18.7649 22.3815C18.8459 22.4648 19.1253 22.6106 19.4254 22.7261C20.4819 23.1328 21.2187 23.5592 22.0348 24.2362C22.6389 24.7373 23.6047 25.0991 24.6936 25.2321C25.4871 25.329 25.5293 25.3381 25.6573 25.4402L25.7784 25.5369L25.6477 25.6098C25.4416 25.7247 24.3527 25.694 23.6688 25.554C22.638 25.3431 21.6479 24.9389 21.0414 24.4816C20.1038 23.7745 18.9947 23.2744 18.3365 23.2619C17.9946 23.2554 17.9303 23.272 17.6457 23.4395C16.9422 23.8537 16.4902 24.4217 16.4902 24.8916C16.4902 25.2374 17.0591 26.5916 17.3827 27.0164C17.6806 27.4073 17.8059 27.187 17.9125 26.085C17.9581 25.6136 18.0213 25.164 18.053 25.086L18.1105 24.9442L18.181 25.1075C18.2198 25.1974 18.2892 25.5368 18.3351 25.8617C18.5316 27.2495 18.3716 27.7181 17.6466 27.8779C17.2894 27.9567 17.0409 27.8856 16.7822 27.6307C16.5309 27.383 16.449 27.2183 16.1697 26.3986L15.9277 25.6883L15.6063 25.5646C15.4295 25.4966 15.2197 25.3717 15.1401 25.287C14.7455 24.8672 14.8436 24.0771 15.3294 23.7623C16.1622 23.2227 17.478 21.5961 18.3665 20.0079C18.7123 19.3896 19.3432 18.4701 19.9203 17.7433L20.3559 17.1945L20.9722 15.3675C21.7334 13.1108 22.3478 11.4753 22.7594 10.6103C22.997 10.1111 23.0864 9.85532 23.1267 9.55988C23.2354 8.76399 22.9959 7.7478 22.4457 6.66977C22.2996 6.38347 21.8008 5.53146 21.3374 4.77649C20.4758 3.37299 19.9605 2.42521 19.7281 1.81691C19.5761 1.41883 19.5642 1.30918 19.6774 1.35205C19.7803 1.3909 20.3679 2.12222 20.9344 2.91605C21.1781 3.25758 21.3959 3.54827 21.4185 3.56205C21.4834 3.60154 21.3266 2.86821 21.1706 2.40203C20.9894 1.86088 20.6904 1.20248 20.3487 0.592008Z" fill="black" fill-opacity="0.971"/>
</svg>
