<svg width="36" height="36" viewBox="0 0 36 36" fill="none" xmlns="http://www.w3.org/2000/svg">
<path fill-rule="evenodd" clip-rule="evenodd" d="M19.9698 9.76521C19.6018 10.2458 19.1824 10.9933 18.5598 12.1103L18.2452 12.6746C18.2244 12.7118 18.2039 12.7489 18.1834 12.7858C17.9016 13.2937 17.6397 13.7656 17.2156 14.0875C16.7861 14.4136 16.264 14.5305 15.7142 14.6537C15.6743 14.6627 15.6343 14.6716 15.5941 14.6807L14.9832 14.819C13.772 15.093 12.9686 15.2774 12.423 15.4924C11.8944 15.7007 11.8412 15.8488 11.8212 15.9131C11.7981 15.9872 11.7636 16.158 12.0813 16.6626C12.4051 17.177 12.9553 17.824 13.7795 18.7878L14.196 19.2748C14.2226 19.3059 14.2492 19.3369 14.2755 19.3676C14.6541 19.8087 15.001 20.2129 15.1605 20.7258C15.3188 21.235 15.2663 21.7682 15.2082 22.3572C15.2041 22.3983 15.2001 22.4396 15.196 22.4813L15.1331 23.131C15.0086 24.4157 14.9269 25.281 14.9545 25.8995C14.982 26.5164 15.1108 26.6219 15.1518 26.653C15.1525 26.6535 15.1532 26.6541 15.154 26.6547C15.1839 26.6779 15.2962 26.765 15.8322 26.6114C16.3945 26.4503 17.1487 26.1058 18.2829 25.5836L18.8549 25.3203C18.8932 25.3026 18.9314 25.2849 18.9695 25.2673C19.4804 25.0307 19.9701 24.8039 20.5066 24.8039C21.0431 24.8039 21.5329 25.0307 22.0438 25.2673C22.0819 25.2849 22.1201 25.3026 22.1584 25.3203L22.7304 25.5836C23.8645 26.1058 24.6188 26.4503 25.1811 26.6114C25.7171 26.765 25.8294 26.6779 25.8593 26.6547C25.8601 26.6541 25.8608 26.6535 25.8615 26.653C25.9025 26.6219 26.0313 26.5164 26.0588 25.8995C26.0863 25.2809 26.0047 24.4157 25.8802 23.131L25.8172 22.4813C25.8132 22.4396 25.8091 22.3983 25.8051 22.3572C25.747 21.7682 25.6944 21.235 25.8528 20.7258C26.0123 20.2129 26.3592 19.8087 26.7378 19.3676C26.7641 19.3368 26.7907 19.3059 26.8173 19.2748L27.2337 18.7878C28.058 17.824 28.6082 17.177 28.932 16.6626C29.2496 16.158 29.2152 15.9872 29.1921 15.9131C29.1721 15.8488 29.1189 15.7007 28.5903 15.4924C28.0447 15.2774 27.2413 15.093 26.0301 14.819L25.4192 14.6807C25.379 14.6716 25.3389 14.6627 25.299 14.6537C24.7493 14.5305 24.2272 14.4136 23.7977 14.0875C23.3736 13.7656 23.1117 13.2937 22.8299 12.7858C22.8094 12.7489 22.7888 12.7118 22.7681 12.6746L22.4535 12.1103C21.8308 10.9933 21.4115 10.2458 21.0435 9.76521C20.6852 9.29741 20.5371 9.29956 20.5086 9.29998C20.5079 9.29999 20.5072 9.3 20.5066 9.3C20.5061 9.3 20.5054 9.29999 20.5046 9.29998C20.4761 9.29956 20.3281 9.29741 19.9698 9.76521ZM18.5407 8.67081C19.0083 8.06019 19.6205 7.5 20.5066 7.5C21.3927 7.5 22.0049 8.06019 22.4725 8.67081C22.9303 9.26852 23.4125 10.1336 23.9898 11.1695L24.3403 11.7982C24.725 12.4882 24.8023 12.5902 24.8861 12.6538C24.9642 12.7132 25.068 12.7558 25.8164 12.9251L26.501 13.08C27.6187 13.3328 28.56 13.5458 29.2502 13.8178C29.9725 14.1024 30.65 14.5396 30.9109 15.3786C31.1688 16.2077 30.8723 16.9591 30.4553 17.6216C30.0527 18.2611 29.4136 19.0084 28.6489 19.9025L28.6017 19.9577L28.1853 20.4447C27.6792 21.0364 27.6068 21.1471 27.5716 21.2603C27.5352 21.3773 27.5324 21.5189 27.6089 22.3076L27.6787 23.0287C27.7946 24.2238 27.8909 25.2178 27.857 25.9796C27.8223 26.7579 27.6443 27.5595 26.9499 28.0867C26.2408 28.625 25.4238 28.5534 24.6853 28.3417C23.9739 28.1379 23.0932 27.7323 22.0469 27.2505L21.4056 26.9553C20.7019 26.6312 20.5961 26.6039 20.5066 26.6039C20.4172 26.6039 20.3114 26.6312 19.6077 26.9553L18.9663 27.2506C17.9201 27.7324 17.0394 28.1379 16.328 28.3417C15.5895 28.5534 14.7725 28.625 14.0634 28.0867C13.369 27.5595 13.1909 26.7579 13.1563 25.9796C13.1223 25.2178 13.2187 24.2237 13.3346 23.0286L13.4044 22.3076C13.4809 21.5189 13.4781 21.3773 13.4417 21.2603C13.4065 21.1471 13.334 21.0364 12.828 20.4447L12.3643 19.9025C11.5997 19.0084 10.9606 18.2611 10.558 17.6216C10.141 16.9591 9.84452 16.2077 10.1024 15.3786C10.3633 14.5396 11.0408 14.1024 11.7631 13.8178C12.4532 13.5458 13.3946 13.3329 14.5123 13.08L15.1969 12.9251C15.9452 12.7558 16.0491 12.7132 16.1272 12.6538C16.211 12.5902 16.2883 12.4882 16.673 11.7982L17.0234 11.1695C17.6008 10.1336 18.083 9.26852 18.5407 8.67081ZM14.0944 9.84275C11.7165 9.15751 9.1657 9.51945 6.7046 10.9607L6.45481 11.107C6.02589 11.3582 5.47456 11.2141 5.22337 10.7852C4.97219 10.3563 5.11627 9.80496 5.54519 9.55378L5.79498 9.40749C8.62748 7.7487 11.6843 7.27498 14.5929 8.11313L14.8423 8.18501C15.3199 8.32265 15.5955 8.82141 15.4579 9.29903C15.3203 9.77665 14.8215 10.0523 14.3439 9.91463L14.0944 9.84275ZM9.40339 15.5236C9.44558 16.0189 9.0783 16.4546 8.58303 16.4968C8.39924 16.5124 8.25833 16.5214 8.14024 16.5288C7.92738 16.5424 7.78869 16.5512 7.60668 16.5861C7.37089 16.6314 7.06474 16.7272 6.50913 17.005C6.06455 17.2273 5.52395 17.0471 5.30165 16.6025C5.07936 16.1579 5.25957 15.6173 5.70415 15.395C6.34854 15.0728 6.81624 14.905 7.26738 14.8184C7.56366 14.7615 7.8695 14.7416 8.14454 14.7237C8.24449 14.7172 8.34037 14.7109 8.43024 14.7032C8.92551 14.6611 9.3612 15.0283 9.40339 15.5236ZM10.7013 22.6271C9.28056 22.2942 7.78369 22.6244 6.66365 23.5069C6.27322 23.8146 5.70734 23.7474 5.39971 23.357C5.09209 22.9666 5.15921 22.4007 5.54963 22.0931C7.10699 20.866 9.16679 20.4188 11.112 20.8746C11.5959 20.988 11.8963 21.4723 11.7829 21.9562C11.6695 22.4402 11.1853 22.7406 10.7013 22.6271Z" fill="white"/>
</svg>
