<svg width="32" height="32" viewBox="0 0 32 32" fill="none" xmlns="http://www.w3.org/2000/svg">
<path d="M13.32 30.3333C13.0533 30.3333 12.84 30.28 12.68 30.2133C12.1467 30.0133 11.24 29.36 11.24 27.2933V18.6933H8.12C6.33333 18.6933 5.69333 17.8533 5.46666 17.36C5.24 16.8533 5.04 15.8267 6.21333 14.48L16.3067 3.01334C17.6667 1.46668 18.7733 1.57334 19.3067 1.77334C19.84 1.97334 20.7467 2.62667 20.7467 4.69334V13.2933H23.8667C25.6533 13.2933 26.2933 14.1333 26.52 14.6267C26.7467 15.1333 26.9467 16.16 25.7733 17.5067L15.68 28.9733C14.7333 30.0533 13.9067 30.3333 13.32 30.3333ZM18.5733 3.65334C18.5333 3.70667 18.2533 3.84001 17.8133 4.34667L7.72 15.8133C7.34666 16.24 7.29333 16.5067 7.29333 16.56C7.32 16.5733 7.56 16.7067 8.12 16.7067H12.24C12.7867 16.7067 13.24 17.16 13.24 17.7067V27.3067C13.24 27.9733 13.36 28.2667 13.4133 28.3467C13.4533 28.2933 13.7333 28.16 14.1733 27.6533L24.2667 16.1867C24.64 15.76 24.6933 15.4933 24.6933 15.44C24.6667 15.4267 24.4267 15.2933 23.8667 15.2933H19.7467C19.2 15.2933 18.7467 14.84 18.7467 14.2933V4.69334C18.76 4.02667 18.6267 3.74667 18.5733 3.65334Z" fill="white"/>
</svg>