<svg width="24" height="24" viewBox="0 0 24 24" fill="none" xmlns="http://www.w3.org/2000/svg">
<path d="M16.1999 17.3999L6.59996 7.79999C6.27196 7.47199 6.27196 6.92799 6.59996 6.6C6.92795 6.272 7.47195 6.272 7.79995 6.6L17.3999 16.1999C17.7279 16.5279 17.7279 17.0719 17.3999 17.3999C17.0719 17.7279 16.5279 17.7279 16.1999 17.3999Z" fill="black"/>
<path d="M6.60012 17.3999C6.27212 17.0719 6.27212 16.5279 6.60012 16.1999L16.2001 6.6C16.5281 6.272 17.072 6.272 17.4 6.6C17.728 6.92799 17.728 7.47199 17.4 7.79999L7.80011 17.3999C7.47211 17.7279 6.92811 17.7279 6.60012 17.3999Z" fill="black"/>
</svg>
